<mxfile host="app.diagrams.net" agent="Mozilla/5.0 (Macintosh; Intel Mac OS X 10_15_7) AppleWebKit/537.36 (KHTML, like Gecko) Chrome/132.0.0.0 Safari/537.36" version="26.0.11">
  <diagram id="yvUyb9_Yjom-hSUSaHzK" name="Page-1">
    <mxGraphModel dx="1536" dy="848" grid="1" gridSize="10" guides="1" tooltips="1" connect="1" arrows="1" fold="1" page="1" pageScale="1" pageWidth="850" pageHeight="1100" math="0" shadow="0">
      <root>
        <mxCell id="0" />
        <mxCell id="1" parent="0" />
        <mxCell id="vIj0ayznzQ2Hyw27erG9-20" value="" style="rounded=0;whiteSpace=wrap;html=1;fillColor=#dae8fc;strokeColor=#6c8ebf;" vertex="1" parent="1">
          <mxGeometry x="650" y="1377" width="330" height="287" as="geometry" />
        </mxCell>
        <mxCell id="vIj0ayznzQ2Hyw27erG9-158" value="" style="rounded=0;whiteSpace=wrap;html=1;fillColor=#f8cecc;strokeColor=#b85450;" vertex="1" parent="1">
          <mxGeometry x="670" y="1516" width="280" height="134" as="geometry" />
        </mxCell>
        <mxCell id="qv2Fv-azI1-X_JU1ZbXW-3" value="" style="edgeStyle=orthogonalEdgeStyle;rounded=0;orthogonalLoop=1;jettySize=auto;html=1;" parent="1" source="qv2Fv-azI1-X_JU1ZbXW-1" target="qv2Fv-azI1-X_JU1ZbXW-2" edge="1">
          <mxGeometry relative="1" as="geometry" />
        </mxCell>
        <mxCell id="qv2Fv-azI1-X_JU1ZbXW-1" value="&lt;b&gt;业务层（内容识别/审核/视图计算）请求&lt;/b&gt;" style="rounded=1;whiteSpace=wrap;html=1;fillColor=#d5e8d4;strokeColor=#82b366;" parent="1" vertex="1">
          <mxGeometry x="190" y="290" width="390" height="60" as="geometry" />
        </mxCell>
        <mxCell id="qv2Fv-azI1-X_JU1ZbXW-2" value="&lt;font style=&quot;font-size: 14px;&quot;&gt;PIC-CGI&lt;/font&gt;" style="rounded=0;whiteSpace=wrap;html=1;fillColor=#fff2cc;strokeColor=#d6b656;gradientColor=none;" parent="1" vertex="1">
          <mxGeometry x="190" y="390" width="390" height="130" as="geometry" />
        </mxCell>
        <mxCell id="qv2Fv-azI1-X_JU1ZbXW-4" value="图片/视频截帧&lt;br&gt;（cos桶)" style="shape=cylinder3;whiteSpace=wrap;html=1;boundedLbl=1;backgroundOutline=1;size=15;fillColor=#f5f5f5;strokeColor=#666666;gradientColor=#b3b3b3;" parent="1" vertex="1">
          <mxGeometry x="650" y="415" width="120" height="80" as="geometry" />
        </mxCell>
        <mxCell id="qv2Fv-azI1-X_JU1ZbXW-6" style="edgeStyle=orthogonalEdgeStyle;rounded=0;orthogonalLoop=1;jettySize=auto;html=1;entryX=1;entryY=0.5;entryDx=0;entryDy=0;exitX=0;exitY=0.5;exitDx=0;exitDy=0;exitPerimeter=0;dashed=1;" parent="1" source="qv2Fv-azI1-X_JU1ZbXW-4" target="qv2Fv-azI1-X_JU1ZbXW-2" edge="1">
          <mxGeometry relative="1" as="geometry">
            <mxPoint x="664" y="360" as="sourcePoint" />
          </mxGeometry>
        </mxCell>
        <mxCell id="qv2Fv-azI1-X_JU1ZbXW-7" value="" style="rounded=0;whiteSpace=wrap;html=1;fillColor=#d5e8d4;strokeColor=#82b366;" parent="1" vertex="1">
          <mxGeometry x="190" y="553" width="390" height="287" as="geometry" />
        </mxCell>
        <mxCell id="qv2Fv-azI1-X_JU1ZbXW-8" value="&lt;font style=&quot;font-size: 14px;&quot;&gt;AI推理服务&lt;/font&gt;" style="text;strokeColor=none;align=center;fillColor=none;html=1;verticalAlign=middle;whiteSpace=wrap;rounded=0;" parent="1" vertex="1">
          <mxGeometry x="200" y="550" width="90" height="40" as="geometry" />
        </mxCell>
        <mxCell id="qv2Fv-azI1-X_JU1ZbXW-9" value="" style="rounded=0;whiteSpace=wrap;html=1;fillColor=#b1ddf0;strokeColor=#10739e;dashed=1;" parent="1" vertex="1">
          <mxGeometry x="230" y="620" width="330" height="100" as="geometry" />
        </mxCell>
        <mxCell id="qv2Fv-azI1-X_JU1ZbXW-10" value="&lt;font style=&quot;font-size: 10px;&quot;&gt;图片解码&lt;/font&gt;" style="rounded=1;whiteSpace=wrap;html=1;fillColor=#f0a30a;strokeColor=#BD7000;fontColor=#000000;" parent="1" vertex="1">
          <mxGeometry x="240" y="638" width="70" height="30" as="geometry" />
        </mxCell>
        <mxCell id="qv2Fv-azI1-X_JU1ZbXW-12" value="图片编码" style="rounded=1;whiteSpace=wrap;html=1;fillColor=#f0a30a;strokeColor=#BD7000;fontColor=#000000;" parent="1" vertex="1">
          <mxGeometry x="320" y="638" width="70" height="30" as="geometry" />
        </mxCell>
        <mxCell id="qv2Fv-azI1-X_JU1ZbXW-13" value="目标检测" style="rounded=1;whiteSpace=wrap;html=1;fillColor=#f0a30a;strokeColor=#BD7000;fontColor=#000000;" parent="1" vertex="1">
          <mxGeometry x="400" y="638" width="70" height="30" as="geometry" />
        </mxCell>
        <mxCell id="qv2Fv-azI1-X_JU1ZbXW-14" value="图片分类" style="rounded=1;whiteSpace=wrap;html=1;fillColor=#f0a30a;strokeColor=#BD7000;fontColor=#000000;" parent="1" vertex="1">
          <mxGeometry x="480" y="638" width="70" height="30" as="geometry" />
        </mxCell>
        <mxCell id="qv2Fv-azI1-X_JU1ZbXW-15" value="图片特征" style="rounded=1;whiteSpace=wrap;html=1;fillColor=#f0a30a;strokeColor=#BD7000;fontColor=#000000;" parent="1" vertex="1">
          <mxGeometry x="240" y="678" width="70" height="30" as="geometry" />
        </mxCell>
        <mxCell id="qv2Fv-azI1-X_JU1ZbXW-16" value="车牌识别" style="rounded=1;whiteSpace=wrap;html=1;fillColor=#f0a30a;strokeColor=#BD7000;fontColor=#000000;" parent="1" vertex="1">
          <mxGeometry x="320" y="678" width="70" height="30" as="geometry" />
        </mxCell>
        <mxCell id="qv2Fv-azI1-X_JU1ZbXW-17" value="图片处理" style="rounded=1;whiteSpace=wrap;html=1;fillColor=#f0a30a;strokeColor=#BD7000;fontColor=#000000;" parent="1" vertex="1">
          <mxGeometry x="400" y="678" width="70" height="30" as="geometry" />
        </mxCell>
        <mxCell id="qv2Fv-azI1-X_JU1ZbXW-18" value="人脸比对" style="rounded=1;whiteSpace=wrap;html=1;fillColor=#f0a30a;strokeColor=#BD7000;fontColor=#000000;" parent="1" vertex="1">
          <mxGeometry x="480" y="678" width="70" height="30" as="geometry" />
        </mxCell>
        <mxCell id="qv2Fv-azI1-X_JU1ZbXW-19" value="&lt;font style=&quot;font-size: 10px;&quot;&gt;模型插件&lt;/font&gt;" style="rounded=1;whiteSpace=wrap;html=1;fillColor=#b1ddf0;strokeColor=#10739e;" parent="1" vertex="1">
          <mxGeometry x="350" y="600" width="70" height="30" as="geometry" />
        </mxCell>
        <mxCell id="qv2Fv-azI1-X_JU1ZbXW-20" value="Model&lt;br&gt;Scheduler" style="rounded=1;whiteSpace=wrap;html=1;fillColor=#DFC006;strokeColor=#d79b00;gradientColor=none;" parent="1" vertex="1">
          <mxGeometry x="241" y="741" width="70" height="30" as="geometry" />
        </mxCell>
        <mxCell id="qv2Fv-azI1-X_JU1ZbXW-22" value="" style="edgeStyle=orthogonalEdgeStyle;rounded=0;orthogonalLoop=1;jettySize=auto;html=1;entryX=0.5;entryY=0;entryDx=0;entryDy=0;exitX=0.5;exitY=1;exitDx=0;exitDy=0;" parent="1" source="qv2Fv-azI1-X_JU1ZbXW-2" target="qv2Fv-azI1-X_JU1ZbXW-7" edge="1">
          <mxGeometry relative="1" as="geometry">
            <mxPoint x="380" y="530" as="sourcePoint" />
            <mxPoint x="395" y="290" as="targetPoint" />
            <Array as="points">
              <mxPoint x="385" y="540" />
              <mxPoint x="385" y="540" />
            </Array>
          </mxGeometry>
        </mxCell>
        <mxCell id="qv2Fv-azI1-X_JU1ZbXW-24" value="" style="rounded=0;whiteSpace=wrap;html=1;" parent="1" vertex="1">
          <mxGeometry x="640" y="730" width="160" height="190" as="geometry" />
        </mxCell>
        <mxCell id="qv2Fv-azI1-X_JU1ZbXW-25" value="&lt;font style=&quot;font-size: 14px;&quot;&gt;图例&lt;/font&gt;" style="text;strokeColor=none;align=center;fillColor=none;html=1;verticalAlign=middle;whiteSpace=wrap;rounded=0;" parent="1" vertex="1">
          <mxGeometry x="670" y="890" width="90" height="40" as="geometry" />
        </mxCell>
        <mxCell id="qv2Fv-azI1-X_JU1ZbXW-26" value="" style="shape=cylinder3;whiteSpace=wrap;html=1;boundedLbl=1;backgroundOutline=1;size=8.375;fillColor=#eeeeee;strokeColor=#36393d;" parent="1" vertex="1">
          <mxGeometry x="670" y="743" width="40" height="30" as="geometry" />
        </mxCell>
        <mxCell id="qv2Fv-azI1-X_JU1ZbXW-27" value="&lt;font style=&quot;font-size: 12px;&quot;&gt;COS&lt;/font&gt;" style="text;strokeColor=none;align=center;fillColor=none;html=1;verticalAlign=middle;whiteSpace=wrap;rounded=0;" parent="1" vertex="1">
          <mxGeometry x="720" y="743" width="60" height="32" as="geometry" />
        </mxCell>
        <mxCell id="qv2Fv-azI1-X_JU1ZbXW-28" value="" style="shape=flexArrow;endArrow=classic;html=1;rounded=0;endWidth=10.75;endSize=4.5825;fillColor=#d0cee2;strokeColor=#56517e;" parent="1" edge="1">
          <mxGeometry width="50" height="50" relative="1" as="geometry">
            <mxPoint x="667.5" y="792" as="sourcePoint" />
            <mxPoint x="712.5" y="792" as="targetPoint" />
          </mxGeometry>
        </mxCell>
        <mxCell id="qv2Fv-azI1-X_JU1ZbXW-29" value="&lt;font style=&quot;font-size: 12px;&quot;&gt;HTTP&lt;/font&gt;" style="text;strokeColor=none;align=center;fillColor=none;html=1;verticalAlign=middle;whiteSpace=wrap;rounded=0;" parent="1" vertex="1">
          <mxGeometry x="720" y="776" width="60" height="32" as="geometry" />
        </mxCell>
        <mxCell id="qv2Fv-azI1-X_JU1ZbXW-30" value="" style="shape=flexArrow;endArrow=classic;html=1;rounded=0;endWidth=10.75;endSize=4.5825;fillColor=#fad9d5;strokeColor=#ae4132;" parent="1" edge="1">
          <mxGeometry width="50" height="50" relative="1" as="geometry">
            <mxPoint x="667.75" y="824" as="sourcePoint" />
            <mxPoint x="712.75" y="824" as="targetPoint" />
          </mxGeometry>
        </mxCell>
        <mxCell id="qv2Fv-azI1-X_JU1ZbXW-31" value="&lt;font style=&quot;font-size: 12px;&quot;&gt;GRPC&lt;/font&gt;" style="text;strokeColor=none;align=center;fillColor=none;html=1;verticalAlign=middle;whiteSpace=wrap;rounded=0;" parent="1" vertex="1">
          <mxGeometry x="720.25" y="808" width="60" height="32" as="geometry" />
        </mxCell>
        <mxCell id="qv2Fv-azI1-X_JU1ZbXW-32" value="" style="endArrow=classic;html=1;rounded=0;" parent="1" edge="1">
          <mxGeometry width="50" height="50" relative="1" as="geometry">
            <mxPoint x="667.5" y="854.81" as="sourcePoint" />
            <mxPoint x="712.5" y="855" as="targetPoint" />
          </mxGeometry>
        </mxCell>
        <mxCell id="qv2Fv-azI1-X_JU1ZbXW-33" value="控制流" style="text;strokeColor=none;align=center;fillColor=none;html=1;verticalAlign=middle;whiteSpace=wrap;rounded=0;" parent="1" vertex="1">
          <mxGeometry x="720.25" y="840" width="60" height="32" as="geometry" />
        </mxCell>
        <mxCell id="qv2Fv-azI1-X_JU1ZbXW-34" value="" style="endArrow=classic;html=1;rounded=0;dashed=1;" parent="1" edge="1">
          <mxGeometry width="50" height="50" relative="1" as="geometry">
            <mxPoint x="667.5" y="884.81" as="sourcePoint" />
            <mxPoint x="712.5" y="885" as="targetPoint" />
          </mxGeometry>
        </mxCell>
        <mxCell id="qv2Fv-azI1-X_JU1ZbXW-35" value="数据流" style="text;strokeColor=none;align=center;fillColor=none;html=1;verticalAlign=middle;whiteSpace=wrap;rounded=0;" parent="1" vertex="1">
          <mxGeometry x="720.25" y="870" width="60" height="32" as="geometry" />
        </mxCell>
        <mxCell id="qv2Fv-azI1-X_JU1ZbXW-36" value="" style="shape=flexArrow;endArrow=classic;html=1;rounded=0;endWidth=10.75;endSize=4.5825;fillColor=#d0cee2;strokeColor=#56517e;" parent="1" edge="1">
          <mxGeometry width="50" height="50" relative="1" as="geometry">
            <mxPoint x="320" y="533" as="sourcePoint" />
            <mxPoint x="320.23" y="584.92" as="targetPoint" />
          </mxGeometry>
        </mxCell>
        <mxCell id="qv2Fv-azI1-X_JU1ZbXW-37" value="Framework&lt;br&gt;backends" style="rounded=1;whiteSpace=wrap;html=1;fillColor=#DFC006;strokeColor=#d79b00;gradientColor=none;" parent="1" vertex="1">
          <mxGeometry x="321" y="741" width="70" height="30" as="geometry" />
        </mxCell>
        <mxCell id="qv2Fv-azI1-X_JU1ZbXW-38" value="Model Analysis" style="rounded=1;whiteSpace=wrap;html=1;fillColor=#DFC006;strokeColor=#d79b00;gradientColor=none;" parent="1" vertex="1">
          <mxGeometry x="401" y="741" width="70" height="30" as="geometry" />
        </mxCell>
        <mxCell id="qv2Fv-azI1-X_JU1ZbXW-39" value="Model Manage" style="rounded=1;whiteSpace=wrap;html=1;fillColor=#DFC006;strokeColor=#d79b00;gradientColor=none;" parent="1" vertex="1">
          <mxGeometry x="481" y="741" width="70" height="30" as="geometry" />
        </mxCell>
        <mxCell id="qv2Fv-azI1-X_JU1ZbXW-40" value="" style="endArrow=classic;html=1;rounded=0;dashed=1;" parent="1" edge="1">
          <mxGeometry width="50" height="50" relative="1" as="geometry">
            <mxPoint x="410" y="550" as="sourcePoint" />
            <mxPoint x="410" y="520" as="targetPoint" />
          </mxGeometry>
        </mxCell>
        <mxCell id="qv2Fv-azI1-X_JU1ZbXW-42" value="" style="edgeStyle=orthogonalEdgeStyle;rounded=0;orthogonalLoop=1;jettySize=auto;html=1;exitX=1.006;exitY=0.225;exitDx=0;exitDy=0;exitPerimeter=0;entryX=-0.01;entryY=0.301;entryDx=0;entryDy=0;entryPerimeter=0;" parent="1" source="qv2Fv-azI1-X_JU1ZbXW-2" target="qv2Fv-azI1-X_JU1ZbXW-4" edge="1">
          <mxGeometry relative="1" as="geometry">
            <mxPoint x="680" y="250" as="sourcePoint" />
            <mxPoint x="680" y="320" as="targetPoint" />
          </mxGeometry>
        </mxCell>
        <mxCell id="qv2Fv-azI1-X_JU1ZbXW-44" value="" style="endArrow=classic;html=1;rounded=0;dashed=1;entryX=0.54;entryY=1.031;entryDx=0;entryDy=0;entryPerimeter=0;" parent="1" target="qv2Fv-azI1-X_JU1ZbXW-1" edge="1">
          <mxGeometry width="50" height="50" relative="1" as="geometry">
            <mxPoint x="401" y="390" as="sourcePoint" />
            <mxPoint x="401" y="360" as="targetPoint" />
          </mxGeometry>
        </mxCell>
        <mxCell id="qv2Fv-azI1-X_JU1ZbXW-45" value="Pipeline配置" style="shape=cylinder3;whiteSpace=wrap;html=1;boundedLbl=1;backgroundOutline=1;size=8.399999999999864;fillColor=#cce5ff;strokeColor=#36393d;" parent="1" vertex="1">
          <mxGeometry x="238.5" y="790" width="75" height="40" as="geometry" />
        </mxCell>
        <mxCell id="qv2Fv-azI1-X_JU1ZbXW-46" value="Metrics" style="shape=cylinder3;whiteSpace=wrap;html=1;boundedLbl=1;backgroundOutline=1;size=8.399999999999864;fillColor=#cce5ff;strokeColor=#36393d;" parent="1" vertex="1">
          <mxGeometry x="356.5" y="790" width="75" height="40" as="geometry" />
        </mxCell>
        <mxCell id="qv2Fv-azI1-X_JU1ZbXW-47" value="模型仓库" style="shape=cylinder3;whiteSpace=wrap;html=1;boundedLbl=1;backgroundOutline=1;size=8.399999999999864;fillColor=#cce5ff;strokeColor=#36393d;" parent="1" vertex="1">
          <mxGeometry x="478.5" y="790" width="75" height="40" as="geometry" />
        </mxCell>
        <mxCell id="qv2Fv-azI1-X_JU1ZbXW-48" value="&lt;b&gt;智研Prometheus&lt;/b&gt;" style="rounded=1;whiteSpace=wrap;html=1;fillColor=#cce5ff;strokeColor=#36393d;" parent="1" vertex="1">
          <mxGeometry x="190" y="870" width="390" height="60" as="geometry" />
        </mxCell>
        <mxCell id="qv2Fv-azI1-X_JU1ZbXW-49" value="" style="endArrow=classic;html=1;rounded=0;dashed=1;exitX=0.5;exitY=1;exitDx=0;exitDy=0;entryX=0.5;entryY=0;entryDx=0;entryDy=0;entryPerimeter=0;" parent="1" source="qv2Fv-azI1-X_JU1ZbXW-20" target="qv2Fv-azI1-X_JU1ZbXW-45" edge="1">
          <mxGeometry width="50" height="50" relative="1" as="geometry">
            <mxPoint x="268.5" y="789.1999999999999" as="sourcePoint" />
            <mxPoint x="313.5" y="789.39" as="targetPoint" />
          </mxGeometry>
        </mxCell>
        <mxCell id="qv2Fv-azI1-X_JU1ZbXW-50" value="" style="endArrow=classic;html=1;rounded=0;dashed=1;entryX=0.5;entryY=0;entryDx=0;entryDy=0;entryPerimeter=0;exitX=0.413;exitY=1.006;exitDx=0;exitDy=0;exitPerimeter=0;" parent="1" source="qv2Fv-azI1-X_JU1ZbXW-38" target="qv2Fv-azI1-X_JU1ZbXW-46" edge="1">
          <mxGeometry width="50" height="50" relative="1" as="geometry">
            <mxPoint x="432.5" y="771" as="sourcePoint" />
            <mxPoint x="477.5" y="771.19" as="targetPoint" />
            <Array as="points">
              <mxPoint x="430" y="780" />
              <mxPoint x="395" y="780" />
            </Array>
          </mxGeometry>
        </mxCell>
        <mxCell id="qv2Fv-azI1-X_JU1ZbXW-51" value="" style="endArrow=classic;html=1;rounded=0;dashed=1;entryX=0.5;entryY=1;entryDx=0;entryDy=0;exitX=0.5;exitY=0;exitDx=0;exitDy=0;exitPerimeter=0;" parent="1" source="qv2Fv-azI1-X_JU1ZbXW-47" target="qv2Fv-azI1-X_JU1ZbXW-39" edge="1">
          <mxGeometry width="50" height="50" relative="1" as="geometry">
            <mxPoint x="520" y="790" as="sourcePoint" />
            <mxPoint x="565" y="790.19" as="targetPoint" />
          </mxGeometry>
        </mxCell>
        <mxCell id="qv2Fv-azI1-X_JU1ZbXW-52" value="" style="endArrow=classic;html=1;rounded=0;dashed=1;entryX=0.522;entryY=-0.02;entryDx=0;entryDy=0;entryPerimeter=0;exitX=0.5;exitY=1;exitDx=0;exitDy=0;exitPerimeter=0;" parent="1" source="qv2Fv-azI1-X_JU1ZbXW-46" target="qv2Fv-azI1-X_JU1ZbXW-48" edge="1">
          <mxGeometry width="50" height="50" relative="1" as="geometry">
            <mxPoint x="400" y="839.05" as="sourcePoint" />
            <mxPoint x="445" y="839.24" as="targetPoint" />
          </mxGeometry>
        </mxCell>
        <mxCell id="qv2Fv-azI1-X_JU1ZbXW-56" value="" style="shape=flexArrow;endArrow=classic;html=1;rounded=0;endWidth=10.75;endSize=4.5825;fillColor=#d0cee2;strokeColor=#56517e;" parent="1" edge="1">
          <mxGeometry width="50" height="50" relative="1" as="geometry">
            <mxPoint x="313.5" y="850.0799999999999" as="sourcePoint" />
            <mxPoint x="313.73" y="902" as="targetPoint" />
          </mxGeometry>
        </mxCell>
        <mxCell id="vIj0ayznzQ2Hyw27erG9-16" value="" style="rounded=0;whiteSpace=wrap;html=1;fillColor=#d5e8d4;strokeColor=#82b366;" vertex="1" parent="1">
          <mxGeometry x="200" y="1377" width="390" height="287" as="geometry" />
        </mxCell>
        <mxCell id="vIj0ayznzQ2Hyw27erG9-19" value="&lt;b&gt;推理服务引擎&lt;/b&gt;" style="rounded=0;whiteSpace=wrap;html=1;fillColor=none;strokeColor=none;" vertex="1" parent="1">
          <mxGeometry x="200" y="1377" width="90" height="20" as="geometry" />
        </mxCell>
        <mxCell id="vIj0ayznzQ2Hyw27erG9-21" value="&lt;b&gt;模型仓库&lt;/b&gt;" style="rounded=0;whiteSpace=wrap;html=1;fillColor=none;strokeColor=none;" vertex="1" parent="1">
          <mxGeometry x="650" y="1377" width="60" height="20" as="geometry" />
        </mxCell>
        <mxCell id="vIj0ayznzQ2Hyw27erG9-22" value="" style="shape=flexArrow;endArrow=classic;html=1;rounded=0;endWidth=10.75;endSize=4.5825;fillColor=#d0cee2;strokeColor=#56517e;fontFamily=Helvetica;fontStyle=1;fontSize=11;" edge="1" parent="1">
          <mxGeometry width="50" height="50" relative="1" as="geometry">
            <mxPoint x="301" y="1370" as="sourcePoint" />
            <mxPoint x="301" y="1330" as="targetPoint" />
          </mxGeometry>
        </mxCell>
        <mxCell id="vIj0ayznzQ2Hyw27erG9-27" value="http:8000" style="edgeLabel;html=1;align=center;verticalAlign=middle;resizable=0;points=[];fontSize=10;" vertex="1" connectable="0" parent="vIj0ayznzQ2Hyw27erG9-22">
          <mxGeometry x="-0.3857" y="-1" relative="1" as="geometry">
            <mxPoint x="38" y="-1" as="offset" />
          </mxGeometry>
        </mxCell>
        <mxCell id="vIj0ayznzQ2Hyw27erG9-24" value="" style="shape=flexArrow;endArrow=classic;html=1;rounded=0;endWidth=10.75;endSize=4.5825;fillColor=#fad9d5;strokeColor=#ae4132;fontFamily=Helvetica;fontStyle=1;fontSize=11;" edge="1" parent="1">
          <mxGeometry width="50" height="50" relative="1" as="geometry">
            <mxPoint x="463.5" y="1370" as="sourcePoint" />
            <mxPoint x="464" y="1330" as="targetPoint" />
          </mxGeometry>
        </mxCell>
        <mxCell id="vIj0ayznzQ2Hyw27erG9-28" value="grpc:8001" style="edgeLabel;html=1;align=center;verticalAlign=middle;resizable=0;points=[];fontSize=10;" vertex="1" connectable="0" parent="vIj0ayznzQ2Hyw27erG9-24">
          <mxGeometry x="-0.0996" y="-1" relative="1" as="geometry">
            <mxPoint x="35" y="5" as="offset" />
          </mxGeometry>
        </mxCell>
        <mxCell id="vIj0ayznzQ2Hyw27erG9-30" value="&lt;b&gt;自动化测试用例&lt;/b&gt;&lt;br&gt;（python）" style="rounded=0;whiteSpace=wrap;html=1;fillColor=#d0cee2;strokeColor=#56517e;fontSize=10;" vertex="1" parent="1">
          <mxGeometry x="200" y="1198" width="160" height="47" as="geometry" />
        </mxCell>
        <mxCell id="vIj0ayznzQ2Hyw27erG9-31" value="&lt;b&gt;推理Web端Demo&lt;/b&gt;&lt;br&gt;（python/gradio）" style="rounded=0;whiteSpace=wrap;html=1;fillColor=#fad9d5;strokeColor=#ae4132;fontSize=10;" vertex="1" parent="1">
          <mxGeometry x="430" y="1198" width="160" height="47" as="geometry" />
        </mxCell>
        <mxCell id="vIj0ayznzQ2Hyw27erG9-32" value="" style="endArrow=classic;html=1;rounded=0;fontFamily=Helvetica;fontStyle=1;fontSize=10;" edge="1" parent="1">
          <mxGeometry width="50" height="50" relative="1" as="geometry">
            <mxPoint x="245.76999999999998" y="1245" as="sourcePoint" />
            <mxPoint x="245.76999999999998" y="1275" as="targetPoint" />
          </mxGeometry>
        </mxCell>
        <mxCell id="vIj0ayznzQ2Hyw27erG9-33" value="" style="endArrow=classic;html=1;rounded=0;dashed=1;fontFamily=Helvetica;fontStyle=1;fontSize=10;startArrow=classic;startFill=1;" edge="1" parent="1">
          <mxGeometry width="50" height="50" relative="1" as="geometry">
            <mxPoint x="310" y="1278" as="sourcePoint" />
            <mxPoint x="310" y="1245" as="targetPoint" />
          </mxGeometry>
        </mxCell>
        <mxCell id="vIj0ayznzQ2Hyw27erG9-35" value="" style="group" vertex="1" connectable="0" parent="1">
          <mxGeometry x="200" y="1281" width="390" height="47" as="geometry" />
        </mxCell>
        <mxCell id="vIj0ayznzQ2Hyw27erG9-25" value="Python/C++/Java/&lt;font style=&quot;color: rgb(255, 51, 51);&quot;&gt;Go&lt;/font&gt;" style="rounded=0;whiteSpace=wrap;html=1;fillColor=#fff2cc;strokeColor=#d6b656;" vertex="1" parent="vIj0ayznzQ2Hyw27erG9-35">
          <mxGeometry width="390" height="47" as="geometry" />
        </mxCell>
        <mxCell id="vIj0ayznzQ2Hyw27erG9-29" value="&lt;b&gt;推理Client&lt;/b&gt;" style="rounded=0;whiteSpace=wrap;html=1;fillColor=none;strokeColor=none;" vertex="1" parent="vIj0ayznzQ2Hyw27erG9-35">
          <mxGeometry width="69" height="20" as="geometry" />
        </mxCell>
        <mxCell id="vIj0ayznzQ2Hyw27erG9-36" value="" style="endArrow=classic;html=1;rounded=0;fontFamily=Helvetica;fontStyle=1;fontSize=10;" edge="1" parent="1">
          <mxGeometry width="50" height="50" relative="1" as="geometry">
            <mxPoint x="477.65" y="1248" as="sourcePoint" />
            <mxPoint x="477.65" y="1278" as="targetPoint" />
          </mxGeometry>
        </mxCell>
        <mxCell id="vIj0ayznzQ2Hyw27erG9-37" value="" style="endArrow=classic;html=1;rounded=0;dashed=1;fontFamily=Helvetica;fontStyle=1;fontSize=10;startArrow=classic;startFill=1;" edge="1" parent="1">
          <mxGeometry width="50" height="50" relative="1" as="geometry">
            <mxPoint x="542" y="1278" as="sourcePoint" />
            <mxPoint x="541.88" y="1248" as="targetPoint" />
          </mxGeometry>
        </mxCell>
        <mxCell id="vIj0ayznzQ2Hyw27erG9-38" value="" style="endArrow=classic;html=1;rounded=0;dashed=1;fontFamily=Helvetica;fontStyle=1;fontSize=11;exitX=0.5;exitY=1;exitDx=0;exitDy=0;entryX=0.5;entryY=0;entryDx=0;entryDy=0;" edge="1" parent="1" source="vIj0ayznzQ2Hyw27erG9-16" target="vIj0ayznzQ2Hyw27erG9-18">
          <mxGeometry width="50" height="50" relative="1" as="geometry">
            <mxPoint x="399.38" y="1664" as="sourcePoint" />
            <mxPoint x="399.6" y="1687" as="targetPoint" />
          </mxGeometry>
        </mxCell>
        <mxCell id="vIj0ayznzQ2Hyw27erG9-39" value="8002" style="edgeLabel;html=1;align=center;verticalAlign=middle;resizable=0;points=[];fontSize=10;" vertex="1" connectable="0" parent="vIj0ayznzQ2Hyw27erG9-38">
          <mxGeometry x="-0.229" relative="1" as="geometry">
            <mxPoint x="15" y="2" as="offset" />
          </mxGeometry>
        </mxCell>
        <mxCell id="vIj0ayznzQ2Hyw27erG9-41" value="" style="group" vertex="1" connectable="0" parent="1">
          <mxGeometry x="200" y="1693" width="390" height="90" as="geometry" />
        </mxCell>
        <mxCell id="vIj0ayznzQ2Hyw27erG9-18" value="" style="rounded=1;whiteSpace=wrap;html=1;fillColor=#b0e3e6;strokeColor=#0e8088;" vertex="1" parent="vIj0ayznzQ2Hyw27erG9-41">
          <mxGeometry width="390" height="80" as="geometry" />
        </mxCell>
        <mxCell id="vIj0ayznzQ2Hyw27erG9-40" value="&lt;b&gt;Metrics&lt;/b&gt;" style="rounded=0;whiteSpace=wrap;html=1;fillColor=none;strokeColor=none;" vertex="1" parent="vIj0ayznzQ2Hyw27erG9-41">
          <mxGeometry width="60" height="20" as="geometry" />
        </mxCell>
        <mxCell id="vIj0ayznzQ2Hyw27erG9-42" value="&lt;font&gt;GPU使用率&lt;/font&gt;" style="rounded=0;whiteSpace=wrap;html=1;fillColor=#fad9d5;strokeColor=none;fontSize=7;fontStyle=0" vertex="1" parent="vIj0ayznzQ2Hyw27erG9-41">
          <mxGeometry x="20" y="24" width="50" height="20" as="geometry" />
        </mxCell>
        <mxCell id="vIj0ayznzQ2Hyw27erG9-71" value="&lt;font&gt;显存占用率&lt;/font&gt;" style="rounded=0;whiteSpace=wrap;html=1;fillColor=#fad9d5;strokeColor=none;fontSize=7;fontStyle=0" vertex="1" parent="vIj0ayznzQ2Hyw27erG9-41">
          <mxGeometry x="80" y="24" width="50" height="20" as="geometry" />
        </mxCell>
        <mxCell id="vIj0ayznzQ2Hyw27erG9-72" value="&lt;font&gt;GPU实时功耗&lt;/font&gt;" style="rounded=0;whiteSpace=wrap;html=1;fillColor=#fad9d5;strokeColor=none;fontSize=7;fontStyle=0" vertex="1" parent="vIj0ayznzQ2Hyw27erG9-41">
          <mxGeometry x="140" y="24" width="50" height="20" as="geometry" />
        </mxCell>
        <mxCell id="vIj0ayznzQ2Hyw27erG9-73" value="CPU使用率" style="rounded=0;whiteSpace=wrap;html=1;fillColor=#fad9d5;strokeColor=default;fontSize=7;labelBorderColor=none;fontColor=light-dark(#ff0000, #ededed);fontStyle=0;dashed=1;strokeWidth=0;" vertex="1" parent="vIj0ayznzQ2Hyw27erG9-41">
          <mxGeometry x="200" y="24" width="50" height="20" as="geometry" />
        </mxCell>
        <mxCell id="vIj0ayznzQ2Hyw27erG9-74" value="内存占用率" style="rounded=0;whiteSpace=wrap;html=1;fillColor=#fad9d5;strokeColor=default;fontSize=7;labelBorderColor=none;fontColor=light-dark(#ff0000, #ededed);fontStyle=0;dashed=1;strokeWidth=0;" vertex="1" parent="vIj0ayznzQ2Hyw27erG9-41">
          <mxGeometry x="260" y="24" width="50" height="20" as="geometry" />
        </mxCell>
        <mxCell id="vIj0ayznzQ2Hyw27erG9-75" value="PinMem占用率" style="rounded=0;whiteSpace=wrap;html=1;fillColor=#fad9d5;strokeColor=default;fontSize=7;labelBorderColor=none;fontColor=light-dark(#ff0000, #ededed);fontStyle=0;dashed=1;strokeWidth=0;" vertex="1" parent="vIj0ayznzQ2Hyw27erG9-41">
          <mxGeometry x="320" y="24" width="50" height="20" as="geometry" />
        </mxCell>
        <mxCell id="vIj0ayznzQ2Hyw27erG9-76" value="&lt;span&gt;推理请求总数&lt;/span&gt;" style="rounded=0;whiteSpace=wrap;html=1;fillColor=#fad9d5;strokeColor=none;fontSize=7;fontStyle=0" vertex="1" parent="vIj0ayznzQ2Hyw27erG9-41">
          <mxGeometry x="20" y="50" width="50" height="20" as="geometry" />
        </mxCell>
        <mxCell id="vIj0ayznzQ2Hyw27erG9-77" value="&lt;span&gt;请求成功数&lt;/span&gt;" style="rounded=0;whiteSpace=wrap;html=1;fillColor=#fad9d5;strokeColor=none;fontSize=7;fontStyle=0" vertex="1" parent="vIj0ayznzQ2Hyw27erG9-41">
          <mxGeometry x="80" y="50" width="50" height="20" as="geometry" />
        </mxCell>
        <mxCell id="vIj0ayznzQ2Hyw27erG9-78" value="&lt;span&gt;请求失败数&lt;/span&gt;" style="rounded=0;whiteSpace=wrap;html=1;fillColor=#fad9d5;strokeColor=none;fontSize=7;fontStyle=0" vertex="1" parent="vIj0ayznzQ2Hyw27erG9-41">
          <mxGeometry x="140" y="50" width="50" height="20" as="geometry" />
        </mxCell>
        <mxCell id="vIj0ayznzQ2Hyw27erG9-79" value="&lt;span&gt;请求整体时延&lt;/span&gt;" style="rounded=0;whiteSpace=wrap;html=1;fillColor=#fad9d5;strokeColor=none;fontSize=7;fontStyle=0" vertex="1" parent="vIj0ayznzQ2Hyw27erG9-41">
          <mxGeometry x="200" y="50" width="50" height="20" as="geometry" />
        </mxCell>
        <mxCell id="vIj0ayznzQ2Hyw27erG9-80" value="&lt;span&gt;推理计算耗时&lt;/span&gt;" style="rounded=0;whiteSpace=wrap;html=1;fillColor=#fad9d5;strokeColor=none;fontSize=7;fontStyle=0" vertex="1" parent="vIj0ayznzQ2Hyw27erG9-41">
          <mxGeometry x="260" y="50" width="50" height="20" as="geometry" />
        </mxCell>
        <mxCell id="vIj0ayznzQ2Hyw27erG9-81" value="&lt;span&gt;模型排队耗时&lt;/span&gt;" style="rounded=0;whiteSpace=wrap;html=1;fillColor=#fad9d5;strokeColor=none;fontSize=7;fontStyle=0" vertex="1" parent="vIj0ayznzQ2Hyw27erG9-41">
          <mxGeometry x="320" y="50" width="50" height="20" as="geometry" />
        </mxCell>
        <mxCell id="vIj0ayznzQ2Hyw27erG9-44" value="&lt;font&gt;显存占用率&lt;/font&gt;" style="rounded=0;whiteSpace=wrap;html=1;fillColor=#fad9d5;strokeColor=none;fontSize=7;fontStyle=1" vertex="1" parent="1">
          <mxGeometry y="2030" width="50" height="20" as="geometry" />
        </mxCell>
        <mxCell id="vIj0ayznzQ2Hyw27erG9-45" value="&lt;font&gt;GPU实时功耗&lt;/font&gt;" style="rounded=0;whiteSpace=wrap;html=1;fillColor=#fad9d5;strokeColor=none;fontSize=7;fontStyle=1" vertex="1" parent="1">
          <mxGeometry y="2060" width="50" height="20" as="geometry" />
        </mxCell>
        <mxCell id="vIj0ayznzQ2Hyw27erG9-46" value="&lt;span&gt;推理请求总数&lt;/span&gt;" style="rounded=0;whiteSpace=wrap;html=1;fillColor=#fad9d5;strokeColor=none;fontSize=7;fontStyle=1" vertex="1" parent="1">
          <mxGeometry y="2180" width="50" height="20" as="geometry" />
        </mxCell>
        <mxCell id="vIj0ayznzQ2Hyw27erG9-47" value="&lt;span&gt;请求成功数&lt;/span&gt;" style="rounded=0;whiteSpace=wrap;html=1;fillColor=#fad9d5;strokeColor=none;fontSize=7;fontStyle=1" vertex="1" parent="1">
          <mxGeometry y="2210" width="50" height="20" as="geometry" />
        </mxCell>
        <mxCell id="vIj0ayznzQ2Hyw27erG9-48" value="&lt;span&gt;请求失败数&lt;/span&gt;" style="rounded=0;whiteSpace=wrap;html=1;fillColor=#fad9d5;strokeColor=none;fontSize=7;fontStyle=1" vertex="1" parent="1">
          <mxGeometry y="2240" width="50" height="20" as="geometry" />
        </mxCell>
        <mxCell id="vIj0ayznzQ2Hyw27erG9-49" value="&lt;span&gt;请求整体时延&lt;/span&gt;" style="rounded=0;whiteSpace=wrap;html=1;fillColor=#fad9d5;strokeColor=none;fontSize=7;fontStyle=1" vertex="1" parent="1">
          <mxGeometry y="2270" width="50" height="20" as="geometry" />
        </mxCell>
        <mxCell id="vIj0ayznzQ2Hyw27erG9-50" value="&lt;span&gt;推理计算耗时&lt;/span&gt;" style="rounded=0;whiteSpace=wrap;html=1;fillColor=#fad9d5;strokeColor=none;fontSize=7;fontStyle=1" vertex="1" parent="1">
          <mxGeometry y="2293" width="50" height="20" as="geometry" />
        </mxCell>
        <mxCell id="vIj0ayznzQ2Hyw27erG9-62" value="&lt;span&gt;模型排队耗时&lt;/span&gt;" style="rounded=0;whiteSpace=wrap;html=1;fillColor=#fad9d5;strokeColor=none;fontSize=7;fontStyle=1" vertex="1" parent="1">
          <mxGeometry y="2320" width="50" height="20" as="geometry" />
        </mxCell>
        <mxCell id="vIj0ayznzQ2Hyw27erG9-63" value="CPU使用率" style="rounded=0;whiteSpace=wrap;html=1;fillColor=#fad9d5;strokeColor=none;fontSize=7;labelBorderColor=none;fontColor=light-dark(#ff0000, #ededed);fontStyle=1" vertex="1" parent="1">
          <mxGeometry y="2090" width="50" height="20" as="geometry" />
        </mxCell>
        <mxCell id="vIj0ayznzQ2Hyw27erG9-64" value="内存占用率" style="rounded=0;whiteSpace=wrap;html=1;fillColor=#fad9d5;strokeColor=none;fontSize=7;labelBorderColor=none;fontColor=light-dark(#ff0000, #ededed);fontStyle=1" vertex="1" parent="1">
          <mxGeometry y="2120" width="50" height="20" as="geometry" />
        </mxCell>
        <mxCell id="vIj0ayznzQ2Hyw27erG9-65" value="PinMem占用率" style="rounded=0;whiteSpace=wrap;html=1;fillColor=#fad9d5;strokeColor=none;fontSize=7;labelBorderColor=none;fontColor=light-dark(#ff0000, #ededed);fontStyle=1" vertex="1" parent="1">
          <mxGeometry y="2150" width="50" height="20" as="geometry" />
        </mxCell>
        <mxCell id="vIj0ayznzQ2Hyw27erG9-82" value="&lt;b&gt;servers&lt;/b&gt;&lt;br&gt;（服务引擎）" style="rounded=1;whiteSpace=wrap;html=1;fillColor=#fad7ac;strokeColor=none;" vertex="1" parent="1">
          <mxGeometry x="410" y="1415" width="150" height="70" as="geometry" />
        </mxCell>
        <mxCell id="vIj0ayznzQ2Hyw27erG9-83" value="&lt;div&gt;&lt;b&gt;core&lt;/b&gt;&lt;br&gt;（&lt;span style=&quot;background-color: transparent; color: light-dark(rgb(0, 0, 0), rgb(255, 255, 255));&quot;&gt;基础组件、协议）&lt;/span&gt;&lt;/div&gt;" style="rounded=1;whiteSpace=wrap;html=1;fillColor=#fad7ac;strokeColor=none;" vertex="1" parent="1">
          <mxGeometry x="231.63" y="1415" width="146.75" height="70" as="geometry" />
        </mxCell>
        <mxCell id="vIj0ayznzQ2Hyw27erG9-84" value="&lt;div&gt;&lt;b&gt;backend&lt;/b&gt;&lt;br&gt;（后端框架）&lt;/div&gt;" style="rounded=1;whiteSpace=wrap;html=1;fillColor=#fad7ac;strokeColor=none;" vertex="1" parent="1">
          <mxGeometry x="230" y="1510" width="150" height="60" as="geometry" />
        </mxCell>
        <mxCell id="vIj0ayznzQ2Hyw27erG9-86" value="&lt;div&gt;&lt;b&gt;custom&lt;/b&gt;&lt;br&gt;（自定义插件）&lt;/div&gt;" style="rounded=1;whiteSpace=wrap;html=1;fillColor=#fad7ac;strokeColor=none;" vertex="1" parent="1">
          <mxGeometry x="410" y="1510" width="150" height="60" as="geometry" />
        </mxCell>
        <mxCell id="vIj0ayznzQ2Hyw27erG9-87" value="&lt;div&gt;&lt;b&gt;build&lt;/b&gt;&lt;br&gt;（编译脚本）&lt;/div&gt;" style="rounded=1;whiteSpace=wrap;html=1;fillColor=#fad7ac;strokeColor=none;" vertex="1" parent="1">
          <mxGeometry x="230" y="1590" width="150" height="60" as="geometry" />
        </mxCell>
        <mxCell id="vIj0ayznzQ2Hyw27erG9-88" value="&lt;b&gt;deploy&lt;/b&gt;&lt;br&gt;（部署脚本）" style="rounded=1;whiteSpace=wrap;html=1;fillColor=#fad7ac;strokeColor=none;" vertex="1" parent="1">
          <mxGeometry x="410" y="1590" width="150" height="60" as="geometry" />
        </mxCell>
        <mxCell id="vIj0ayznzQ2Hyw27erG9-90" value="&lt;div&gt;core&lt;br&gt;（&lt;span style=&quot;background-color: transparent; color: light-dark(rgb(0, 0, 0), rgb(255, 255, 255));&quot;&gt;基础组件、协议）&lt;/span&gt;&lt;/div&gt;" style="rounded=1;whiteSpace=wrap;html=1;fillColor=#fad7ac;strokeColor=none;" vertex="1" parent="1">
          <mxGeometry x="391" y="2230" width="120" height="60" as="geometry" />
        </mxCell>
        <mxCell id="vIj0ayznzQ2Hyw27erG9-91" value="&lt;div&gt;backend&lt;br&gt;（后端框架）&lt;/div&gt;" style="rounded=1;whiteSpace=wrap;html=1;fillColor=#fad7ac;strokeColor=none;" vertex="1" parent="1">
          <mxGeometry x="150" y="2240" width="120" height="60" as="geometry" />
        </mxCell>
        <mxCell id="vIj0ayznzQ2Hyw27erG9-92" value="&lt;div&gt;custom&lt;br&gt;（自定义插件）&lt;/div&gt;" style="rounded=1;whiteSpace=wrap;html=1;fillColor=#fad7ac;strokeColor=none;" vertex="1" parent="1">
          <mxGeometry x="397.5" y="2310" width="120" height="60" as="geometry" />
        </mxCell>
        <mxCell id="vIj0ayznzQ2Hyw27erG9-93" value="&lt;div&gt;build&lt;br&gt;（编译脚本）&lt;/div&gt;" style="rounded=1;whiteSpace=wrap;html=1;fillColor=#fad7ac;strokeColor=none;" vertex="1" parent="1">
          <mxGeometry x="170" y="2340" width="120" height="60" as="geometry" />
        </mxCell>
        <mxCell id="vIj0ayznzQ2Hyw27erG9-94" value="deploy" style="rounded=1;whiteSpace=wrap;html=1;fillColor=#fad7ac;strokeColor=none;" vertex="1" parent="1">
          <mxGeometry x="397.5" y="2400" width="120" height="60" as="geometry" />
        </mxCell>
        <mxCell id="vIj0ayznzQ2Hyw27erG9-96" value="" style="group" vertex="1" connectable="0" parent="1">
          <mxGeometry x="191" y="2070" width="159" height="80" as="geometry" />
        </mxCell>
        <mxCell id="vIj0ayznzQ2Hyw27erG9-89" value="" style="rounded=1;whiteSpace=wrap;html=1;fillColor=#fad7ac;strokeColor=none;" vertex="1" parent="vIj0ayznzQ2Hyw27erG9-96">
          <mxGeometry width="159" height="80" as="geometry" />
        </mxCell>
        <mxCell id="vIj0ayznzQ2Hyw27erG9-95" value="&lt;font&gt;&lt;b&gt;servers&lt;/b&gt;&lt;/font&gt;" style="rounded=0;whiteSpace=wrap;html=1;fillColor=none;strokeColor=none;" vertex="1" parent="vIj0ayznzQ2Hyw27erG9-96">
          <mxGeometry x="49" width="60" height="20" as="geometry" />
        </mxCell>
        <mxCell id="vIj0ayznzQ2Hyw27erG9-98" value="" style="group;fontStyle=1" vertex="1" connectable="0" parent="1">
          <mxGeometry x="440" y="2070" width="159" height="80" as="geometry" />
        </mxCell>
        <mxCell id="vIj0ayznzQ2Hyw27erG9-99" value="" style="rounded=1;whiteSpace=wrap;html=1;fillColor=#fad7ac;strokeColor=#b46504;" vertex="1" parent="vIj0ayznzQ2Hyw27erG9-98">
          <mxGeometry width="159" height="80" as="geometry" />
        </mxCell>
        <mxCell id="vIj0ayznzQ2Hyw27erG9-100" value="&lt;font&gt;&lt;b&gt;core&lt;/b&gt;&lt;/font&gt;" style="rounded=0;whiteSpace=wrap;html=1;fillColor=none;strokeColor=none;fontSize=12;" vertex="1" parent="vIj0ayznzQ2Hyw27erG9-98">
          <mxGeometry x="49" width="60" height="20" as="geometry" />
        </mxCell>
        <mxCell id="vIj0ayznzQ2Hyw27erG9-101" value="协议" style="rounded=0;whiteSpace=wrap;html=1;fillColor=#b1ddf0;strokeColor=none;fontSize=10;" vertex="1" parent="vIj0ayznzQ2Hyw27erG9-98">
          <mxGeometry x="14" y="40" width="36" height="30" as="geometry" />
        </mxCell>
        <mxCell id="vIj0ayznzQ2Hyw27erG9-102" value="队列" style="rounded=0;whiteSpace=wrap;html=1;fillColor=#b1ddf0;strokeColor=none;fontSize=10;" vertex="1" parent="vIj0ayznzQ2Hyw27erG9-98">
          <mxGeometry x="61" y="40" width="36" height="30" as="geometry" />
        </mxCell>
        <mxCell id="vIj0ayznzQ2Hyw27erG9-108" value="日志" style="rounded=0;whiteSpace=wrap;html=1;fillColor=#b1ddf0;strokeColor=none;fontSize=10;" vertex="1" parent="vIj0ayznzQ2Hyw27erG9-98">
          <mxGeometry x="109" y="40" width="36" height="30" as="geometry" />
        </mxCell>
        <mxCell id="vIj0ayznzQ2Hyw27erG9-109" value="&lt;font&gt;显存占用率&lt;/font&gt;" style="rounded=0;whiteSpace=wrap;html=1;fillColor=#fad9d5;strokeColor=none;fontSize=7;fontStyle=1" vertex="1" parent="1">
          <mxGeometry x="10" y="2040" width="50" height="20" as="geometry" />
        </mxCell>
        <mxCell id="vIj0ayznzQ2Hyw27erG9-110" value="模型下发&lt;br&gt;(cos sdk)" style="rounded=1;whiteSpace=wrap;html=1;fillColor=#d5e8d4;strokeColor=#82b366;" vertex="1" parent="1">
          <mxGeometry x="680" y="1425" width="120" height="60" as="geometry" />
        </mxCell>
        <mxCell id="vIj0ayznzQ2Hyw27erG9-112" value="模型加密&lt;br&gt;(cos sdk)" style="rounded=1;whiteSpace=wrap;html=1;fillColor=#d5e8d4;strokeColor=#82b366;" vertex="1" parent="1">
          <mxGeometry x="820" y="1425" width="120" height="60" as="geometry" />
        </mxCell>
        <mxCell id="vIj0ayznzQ2Hyw27erG9-113" value="加密模型仓库" style="shape=cylinder3;whiteSpace=wrap;html=1;boundedLbl=1;backgroundOutline=1;size=8.375;fillColor=#eeeeee;strokeColor=#36393d;fontFamily=Helvetica;fontStyle=1;fontSize=11;" vertex="1" parent="1">
          <mxGeometry x="680" y="1271.63" width="120" height="65.75" as="geometry" />
        </mxCell>
        <mxCell id="vIj0ayznzQ2Hyw27erG9-115" value="裸模型仓库" style="shape=cylinder3;whiteSpace=wrap;html=1;boundedLbl=1;backgroundOutline=1;size=8.375;fillColor=#eeeeee;strokeColor=#36393d;fontFamily=Helvetica;fontStyle=1;fontSize=11;" vertex="1" parent="1">
          <mxGeometry x="820" y="1271.63" width="120" height="65.75" as="geometry" />
        </mxCell>
        <mxCell id="vIj0ayznzQ2Hyw27erG9-116" value="" style="endArrow=classic;html=1;rounded=0;dashed=1;fontFamily=Helvetica;fontStyle=1;fontSize=11;entryX=0.304;entryY=0.025;entryDx=0;entryDy=0;entryPerimeter=0;" edge="1" parent="1" target="vIj0ayznzQ2Hyw27erG9-110">
          <mxGeometry width="50" height="50" relative="1" as="geometry">
            <mxPoint x="716" y="1340" as="sourcePoint" />
            <mxPoint x="1065" y="1425.19" as="targetPoint" />
          </mxGeometry>
        </mxCell>
        <mxCell id="vIj0ayznzQ2Hyw27erG9-118" value="" style="endArrow=classic;html=1;rounded=0;dashed=1;fontFamily=Helvetica;fontStyle=1;fontSize=11;exitX=0.209;exitY=0.006;exitDx=0;exitDy=0;exitPerimeter=0;entryX=0.66;entryY=0.997;entryDx=0;entryDy=0;entryPerimeter=0;" edge="1" parent="1" source="vIj0ayznzQ2Hyw27erG9-112" target="vIj0ayznzQ2Hyw27erG9-113">
          <mxGeometry width="50" height="50" relative="1" as="geometry">
            <mxPoint x="726" y="1350" as="sourcePoint" />
            <mxPoint x="850" y="1333" as="targetPoint" />
            <Array as="points">
              <mxPoint x="845" y="1390" />
              <mxPoint x="810" y="1390" />
              <mxPoint x="759" y="1390" />
            </Array>
          </mxGeometry>
        </mxCell>
        <mxCell id="vIj0ayznzQ2Hyw27erG9-119" value="" style="endArrow=classic;html=1;rounded=0;dashed=1;fontFamily=Helvetica;fontStyle=1;fontSize=11;entryX=0.304;entryY=0.025;entryDx=0;entryDy=0;entryPerimeter=0;" edge="1" parent="1">
          <mxGeometry width="50" height="50" relative="1" as="geometry">
            <mxPoint x="890" y="1337.38" as="sourcePoint" />
            <mxPoint x="890" y="1424.38" as="targetPoint" />
          </mxGeometry>
        </mxCell>
        <mxCell id="vIj0ayznzQ2Hyw27erG9-120" value="" style="endArrow=classic;html=1;rounded=0;fontFamily=Helvetica;fontStyle=1;fontSize=10;entryX=0.5;entryY=1;entryDx=0;entryDy=0;entryPerimeter=0;exitX=0.5;exitY=0;exitDx=0;exitDy=0;" edge="1" parent="1" source="vIj0ayznzQ2Hyw27erG9-110" target="vIj0ayznzQ2Hyw27erG9-113">
          <mxGeometry width="50" height="50" relative="1" as="geometry">
            <mxPoint x="740" y="1367" as="sourcePoint" />
            <mxPoint x="740" y="1397" as="targetPoint" />
          </mxGeometry>
        </mxCell>
        <mxCell id="vIj0ayznzQ2Hyw27erG9-121" value="" style="endArrow=classic;html=1;rounded=0;fontFamily=Helvetica;fontStyle=1;fontSize=10;entryX=0.5;entryY=1;entryDx=0;entryDy=0;entryPerimeter=0;exitX=0.5;exitY=0;exitDx=0;exitDy=0;" edge="1" parent="1">
          <mxGeometry width="50" height="50" relative="1" as="geometry">
            <mxPoint x="870" y="1425" as="sourcePoint" />
            <mxPoint x="870" y="1337" as="targetPoint" />
          </mxGeometry>
        </mxCell>
        <mxCell id="vIj0ayznzQ2Hyw27erG9-122" value="" style="rounded=1;whiteSpace=wrap;html=1;fillColor=#d5e8d4;strokeColor=#82b366;" vertex="1" parent="1">
          <mxGeometry x="680" y="1530" width="120" height="110" as="geometry" />
        </mxCell>
        <mxCell id="vIj0ayznzQ2Hyw27erG9-123" value="裸模型文件" style="shape=document;whiteSpace=wrap;html=1;boundedLbl=1;fillColor=#ffe6cc;strokeColor=#d79b00;" vertex="1" parent="1">
          <mxGeometry x="1030" y="1269.5100000000002" width="120" height="80" as="geometry" />
        </mxCell>
        <mxCell id="vIj0ayznzQ2Hyw27erG9-124" value="" style="endArrow=classic;html=1;rounded=0;dashed=1;fontFamily=Helvetica;fontStyle=1;fontSize=11;entryX=1;entryY=0.5;entryDx=0;entryDy=0;entryPerimeter=0;exitX=-0.016;exitY=0.436;exitDx=0;exitDy=0;exitPerimeter=0;" edge="1" parent="1" source="vIj0ayznzQ2Hyw27erG9-123" target="vIj0ayznzQ2Hyw27erG9-115">
          <mxGeometry width="50" height="50" relative="1" as="geometry">
            <mxPoint x="900" y="1347.38" as="sourcePoint" />
            <mxPoint x="900" y="1434.38" as="targetPoint" />
          </mxGeometry>
        </mxCell>
        <mxCell id="vIj0ayznzQ2Hyw27erG9-126" value="" style="rounded=1;whiteSpace=wrap;html=1;fillColor=#d5e8d4;strokeColor=#82b366;" vertex="1" parent="1">
          <mxGeometry x="820" y="1530" width="120" height="110" as="geometry" />
        </mxCell>
        <mxCell id="vIj0ayznzQ2Hyw27erG9-127" value="" style="endArrow=classic;html=1;rounded=0;dashed=1;fontFamily=Helvetica;fontStyle=1;fontSize=11;" edge="1" parent="1">
          <mxGeometry width="50" height="50" relative="1" as="geometry">
            <mxPoint x="740.2099999999999" y="1485" as="sourcePoint" />
            <mxPoint x="739.8" y="1530" as="targetPoint" />
          </mxGeometry>
        </mxCell>
        <mxCell id="vIj0ayznzQ2Hyw27erG9-132" value="&lt;span style=&quot;font-size: 12px; font-weight: 400;&quot;&gt;plugin&lt;br&gt;&lt;/span&gt;" style="text;strokeColor=none;align=center;fillColor=none;html=1;verticalAlign=middle;whiteSpace=wrap;rounded=0;fontFamily=Helvetica;fontStyle=1;fontSize=11;container=0;" vertex="1" parent="1">
          <mxGeometry x="710" y="1530" width="60" height="30" as="geometry" />
        </mxCell>
        <mxCell id="vIj0ayznzQ2Hyw27erG9-133" value="&lt;span style=&quot;font-size: 12px; font-weight: 400;&quot;&gt;pipeline&lt;/span&gt;" style="text;strokeColor=none;align=center;fillColor=none;html=1;verticalAlign=middle;whiteSpace=wrap;rounded=0;fontFamily=Helvetica;fontStyle=1;fontSize=11;container=0;" vertex="1" parent="1">
          <mxGeometry x="850" y="1530" width="60" height="30" as="geometry" />
        </mxCell>
        <mxCell id="vIj0ayznzQ2Hyw27erG9-149" value="&lt;font style=&quot;font-size: 10px; font-weight: normal;&quot;&gt;插件so库&lt;/font&gt;" style="rounded=0;whiteSpace=wrap;html=1;fillColor=#fff2cc;strokeColor=default;fontSize=7;fontStyle=1;strokeWidth=0;" vertex="1" parent="1">
          <mxGeometry x="687.25" y="1570" width="47.5" height="20" as="geometry" />
        </mxCell>
        <mxCell id="vIj0ayznzQ2Hyw27erG9-150" value="&lt;font style=&quot;font-size: 10px; font-weight: normal;&quot;&gt;模型文件&lt;/font&gt;" style="rounded=0;whiteSpace=wrap;html=1;fillColor=#fff2cc;strokeColor=default;fontSize=7;fontStyle=1;strokeWidth=0;" vertex="1" parent="1">
          <mxGeometry x="746" y="1570" width="47.5" height="20" as="geometry" />
        </mxCell>
        <mxCell id="vIj0ayznzQ2Hyw27erG9-151" value="&lt;font style=&quot;font-size: 10px; font-weight: normal;&quot;&gt;标签文件&lt;/font&gt;" style="rounded=0;whiteSpace=wrap;html=1;fillColor=#fff2cc;strokeColor=default;fontSize=7;fontStyle=1;strokeWidth=0;" vertex="1" parent="1">
          <mxGeometry x="687.25" y="1600" width="47.5" height="20" as="geometry" />
        </mxCell>
        <mxCell id="vIj0ayznzQ2Hyw27erG9-152" value="&lt;font style=&quot;font-size: 10px; font-weight: normal;&quot;&gt;配置文件&lt;/font&gt;" style="rounded=0;whiteSpace=wrap;html=1;fillColor=#fff2cc;strokeColor=default;fontSize=7;fontStyle=1;strokeWidth=0;" vertex="1" parent="1">
          <mxGeometry x="746" y="1600" width="47.5" height="20" as="geometry" />
        </mxCell>
        <mxCell id="vIj0ayznzQ2Hyw27erG9-153" value="&lt;span style=&quot;font-size: 10px; font-weight: 400;&quot;&gt;配置文件&lt;/span&gt;" style="rounded=0;whiteSpace=wrap;html=1;fillColor=#fff2cc;strokeColor=default;fontSize=7;fontStyle=1;strokeWidth=0;" vertex="1" parent="1">
          <mxGeometry x="856.25" y="1570" width="47.5" height="20" as="geometry" />
        </mxCell>
        <mxCell id="vIj0ayznzQ2Hyw27erG9-155" value="" style="curved=1;endArrow=classic;html=1;rounded=0;entryX=0;entryY=0.5;entryDx=0;entryDy=0;dashed=1;" edge="1" parent="1" target="vIj0ayznzQ2Hyw27erG9-153">
          <mxGeometry width="50" height="50" relative="1" as="geometry">
            <mxPoint x="800" y="1580" as="sourcePoint" />
            <mxPoint x="850" y="1530" as="targetPoint" />
            <Array as="points">
              <mxPoint x="830" y="1580" />
            </Array>
          </mxGeometry>
        </mxCell>
        <mxCell id="vIj0ayznzQ2Hyw27erG9-156" value="" style="curved=1;endArrow=classic;html=1;rounded=0;entryX=0;entryY=0.25;entryDx=0;entryDy=0;dashed=1;" edge="1" parent="1" target="vIj0ayznzQ2Hyw27erG9-149">
          <mxGeometry width="50" height="50" relative="1" as="geometry">
            <mxPoint x="560" y="1545.5" as="sourcePoint" />
            <mxPoint x="610" y="1495.5" as="targetPoint" />
            <Array as="points">
              <mxPoint x="610" y="1545.5" />
              <mxPoint x="620" y="1560" />
            </Array>
          </mxGeometry>
        </mxCell>
        <mxCell id="vIj0ayznzQ2Hyw27erG9-159" value="" style="curved=1;endArrow=classic;html=1;rounded=0;entryX=0;entryY=0;entryDx=0;entryDy=0;" edge="1" parent="1" target="vIj0ayznzQ2Hyw27erG9-158">
          <mxGeometry width="50" height="50" relative="1" as="geometry">
            <mxPoint x="560" y="1450" as="sourcePoint" />
            <mxPoint x="687" y="1479.5" as="targetPoint" />
            <Array as="points">
              <mxPoint x="610" y="1450" />
              <mxPoint x="620" y="1464.5" />
            </Array>
          </mxGeometry>
        </mxCell>
        <mxCell id="vIj0ayznzQ2Hyw27erG9-160" value="" style="group" vertex="1" connectable="0" parent="1">
          <mxGeometry x="1010" y="1560" width="160" height="230" as="geometry" />
        </mxCell>
        <mxCell id="vIj0ayznzQ2Hyw27erG9-2" value="" style="rounded=0;whiteSpace=wrap;html=1;fontFamily=Helvetica;fontStyle=1;fontSize=11;container=0;" vertex="1" parent="vIj0ayznzQ2Hyw27erG9-160">
          <mxGeometry width="160" height="220" as="geometry" />
        </mxCell>
        <mxCell id="vIj0ayznzQ2Hyw27erG9-3" value="&lt;font&gt;图例&lt;/font&gt;" style="text;strokeColor=none;align=center;fillColor=none;html=1;verticalAlign=middle;whiteSpace=wrap;rounded=0;fontFamily=Helvetica;fontStyle=1;fontSize=11;container=0;" vertex="1" parent="vIj0ayznzQ2Hyw27erG9-160">
          <mxGeometry x="30" y="190" width="90" height="40" as="geometry" />
        </mxCell>
        <mxCell id="vIj0ayznzQ2Hyw27erG9-4" value="" style="shape=cylinder3;whiteSpace=wrap;html=1;boundedLbl=1;backgroundOutline=1;size=8.375;fillColor=#eeeeee;strokeColor=#36393d;fontFamily=Helvetica;fontStyle=1;fontSize=11;container=0;" vertex="1" parent="vIj0ayznzQ2Hyw27erG9-160">
          <mxGeometry x="30" y="43" width="40" height="30" as="geometry" />
        </mxCell>
        <mxCell id="vIj0ayznzQ2Hyw27erG9-5" value="&lt;font&gt;COS&lt;/font&gt;" style="text;strokeColor=none;align=center;fillColor=none;html=1;verticalAlign=middle;whiteSpace=wrap;rounded=0;fontFamily=Helvetica;fontStyle=1;fontSize=11;container=0;" vertex="1" parent="vIj0ayznzQ2Hyw27erG9-160">
          <mxGeometry x="80" y="43" width="60" height="32" as="geometry" />
        </mxCell>
        <mxCell id="vIj0ayznzQ2Hyw27erG9-6" value="" style="shape=flexArrow;endArrow=classic;html=1;rounded=0;endWidth=10.75;endSize=4.5825;fillColor=#d0cee2;strokeColor=#56517e;fontFamily=Helvetica;fontStyle=1;fontSize=11;" edge="1" parent="vIj0ayznzQ2Hyw27erG9-160">
          <mxGeometry width="50" height="50" relative="1" as="geometry">
            <mxPoint x="27.5" y="92" as="sourcePoint" />
            <mxPoint x="72.5" y="92" as="targetPoint" />
          </mxGeometry>
        </mxCell>
        <mxCell id="vIj0ayznzQ2Hyw27erG9-7" value="&lt;font&gt;HTTP&lt;/font&gt;" style="text;strokeColor=none;align=center;fillColor=none;html=1;verticalAlign=middle;whiteSpace=wrap;rounded=0;fontFamily=Helvetica;fontStyle=1;fontSize=11;container=0;" vertex="1" parent="vIj0ayznzQ2Hyw27erG9-160">
          <mxGeometry x="80" y="76" width="60" height="32" as="geometry" />
        </mxCell>
        <mxCell id="vIj0ayznzQ2Hyw27erG9-8" value="" style="shape=flexArrow;endArrow=classic;html=1;rounded=0;endWidth=10.75;endSize=4.5825;fillColor=#fad9d5;strokeColor=#ae4132;fontFamily=Helvetica;fontStyle=1;fontSize=11;" edge="1" parent="vIj0ayznzQ2Hyw27erG9-160">
          <mxGeometry width="50" height="50" relative="1" as="geometry">
            <mxPoint x="27.75" y="124" as="sourcePoint" />
            <mxPoint x="72.75" y="124" as="targetPoint" />
          </mxGeometry>
        </mxCell>
        <mxCell id="vIj0ayznzQ2Hyw27erG9-9" value="&lt;font&gt;GRPC&lt;/font&gt;" style="text;strokeColor=none;align=center;fillColor=none;html=1;verticalAlign=middle;whiteSpace=wrap;rounded=0;fontFamily=Helvetica;fontStyle=1;fontSize=11;container=0;" vertex="1" parent="vIj0ayznzQ2Hyw27erG9-160">
          <mxGeometry x="80.25" y="108" width="60" height="32" as="geometry" />
        </mxCell>
        <mxCell id="vIj0ayznzQ2Hyw27erG9-10" value="" style="endArrow=classic;html=1;rounded=0;fontFamily=Helvetica;fontStyle=1;fontSize=11;" edge="1" parent="vIj0ayznzQ2Hyw27erG9-160">
          <mxGeometry width="50" height="50" relative="1" as="geometry">
            <mxPoint x="27.5" y="154.80999999999995" as="sourcePoint" />
            <mxPoint x="72.5" y="155" as="targetPoint" />
          </mxGeometry>
        </mxCell>
        <mxCell id="vIj0ayznzQ2Hyw27erG9-11" value="控制流" style="text;strokeColor=none;align=center;fillColor=none;html=1;verticalAlign=middle;whiteSpace=wrap;rounded=0;fontFamily=Helvetica;fontStyle=1;fontSize=11;container=0;" vertex="1" parent="vIj0ayznzQ2Hyw27erG9-160">
          <mxGeometry x="80.25" y="140" width="60" height="32" as="geometry" />
        </mxCell>
        <mxCell id="vIj0ayznzQ2Hyw27erG9-12" value="" style="endArrow=classic;html=1;rounded=0;dashed=1;fontFamily=Helvetica;fontStyle=1;fontSize=11;" edge="1" parent="vIj0ayznzQ2Hyw27erG9-160">
          <mxGeometry width="50" height="50" relative="1" as="geometry">
            <mxPoint x="27.5" y="184.80999999999995" as="sourcePoint" />
            <mxPoint x="72.5" y="185" as="targetPoint" />
          </mxGeometry>
        </mxCell>
        <mxCell id="vIj0ayznzQ2Hyw27erG9-13" value="数据流" style="text;strokeColor=none;align=center;fillColor=none;html=1;verticalAlign=middle;whiteSpace=wrap;rounded=0;fontFamily=Helvetica;fontStyle=1;fontSize=11;container=0;" vertex="1" parent="vIj0ayznzQ2Hyw27erG9-160">
          <mxGeometry x="80.25" y="170" width="60" height="32" as="geometry" />
        </mxCell>
        <mxCell id="vIj0ayznzQ2Hyw27erG9-130" value="" style="shape=document;whiteSpace=wrap;html=1;boundedLbl=1;fillColor=#ffe6cc;strokeColor=#d79b00;" vertex="1" parent="vIj0ayznzQ2Hyw27erG9-160">
          <mxGeometry x="32.5" y="10" width="35" height="20" as="geometry" />
        </mxCell>
        <mxCell id="vIj0ayznzQ2Hyw27erG9-131" value="AI模型" style="text;strokeColor=none;align=center;fillColor=none;html=1;verticalAlign=middle;whiteSpace=wrap;rounded=0;fontFamily=Helvetica;fontStyle=1;fontSize=11;container=0;" vertex="1" parent="vIj0ayznzQ2Hyw27erG9-160">
          <mxGeometry x="80.25" y="4" width="60" height="32" as="geometry" />
        </mxCell>
      </root>
    </mxGraphModel>
  </diagram>
</mxfile>
